<svg width="30" height="30" viewBox="0 0 30 30" fill="none" xmlns="http://www.w3.org/2000/svg">
<g clip-path="url(#clip0_240_62)">
<path opacity="0.3" fill-rule="evenodd" clip-rule="evenodd" d="M29.2793 15.1198C29.6698 15.5103 29.6698 16.1434 29.2793 16.534L22.9154 22.898C22.5249 23.2885 21.8917 23.2885 21.5012 22.898C21.1107 22.5075 21.1107 21.8743 21.5012 21.4838L26.158 16.8269L1.58573 16.8271C1.03345 16.8271 0.585728 16.3794 0.585723 15.8271C0.585718 15.2748 1.03343 14.8271 1.58572 14.8271L26.158 14.8269L21.5011 10.1701C21.1106 9.77956 21.1105 9.1464 21.5011 8.75587C21.8916 8.36534 22.5248 8.36534 22.9153 8.75586L29.2793 15.1198Z" fill="#1A375F"/>
</g>
<defs>
<clipPath id="clip0_240_62">
<rect width="30" height="30" fill="white"/>
</clipPath>
</defs>
</svg>
