<svg width="28" height="28" viewBox="0 0 28 28" fill="none" xmlns="http://www.w3.org/2000/svg">
<path fill-rule="evenodd" clip-rule="evenodd" d="M12.5856 21.5861C11.8046 20.805 11.8046 19.5387 12.5856 18.7577L23.7572 7.58609C24.5382 6.80504 25.8045 6.80504 26.5856 7.58609C27.3666 8.36714 27.3666 9.63347 26.5856 10.4145L15.414 21.5861C14.633 22.3671 13.3666 22.3671 12.5856 21.5861Z" fill="#1A375F"/>
<path fill-rule="evenodd" clip-rule="evenodd" d="M15.4144 21.5861C16.1954 20.805 16.1954 19.5387 15.4144 18.7577L4.24283 7.58609C3.46178 6.80504 2.19545 6.80504 1.4144 7.58609C0.633352 8.36714 0.633351 9.63347 1.4144 10.4145L12.586 21.5861C13.367 22.3671 14.6334 22.3671 15.4144 21.5861Z" fill="#1A375F"/>
</svg>
