<svg width="280" height="90" viewBox="0 0 280 90" fill="none" xmlns="http://www.w3.org/2000/svg">
<path d="M225.802 45.7646C224.957 44.5983 223.587 43.9951 221.774 43.9951C220.647 43.9951 219.599 44.2364 218.632 44.7592C217.666 45.282 216.9 46.0058 216.336 46.9308C215.773 47.8557 215.491 48.9415 215.491 50.1479C215.491 51.3544 215.773 52.4402 216.336 53.4053C216.9 54.3302 217.666 55.0541 218.632 55.5769C219.599 56.0997 220.647 56.341 221.774 56.341C223.426 56.341 224.715 55.8584 225.601 54.8128V55.2552C225.601 56.3007 225.319 57.0648 224.755 57.5876C224.191 58.1104 223.345 58.3517 222.137 58.3517C221.372 58.3517 220.566 58.231 219.801 57.9898C218.995 57.7485 218.351 57.3865 217.827 56.9844L216.175 60.1211C216.941 60.6841 217.867 61.0863 218.995 61.3678C220.083 61.6493 221.291 61.8101 222.54 61.8101C224.957 61.8101 226.809 61.2069 228.139 60.0407C229.428 58.8343 230.072 57.0648 230.072 54.6922V44.2364H225.802V45.7646ZM224.836 52.0782C224.312 52.5608 223.627 52.8021 222.822 52.8021C222.016 52.8021 221.331 52.5608 220.808 52.0782C220.284 51.5957 220.002 50.9522 220.002 50.1882C220.002 49.4241 220.284 48.7806 220.808 48.2981C221.331 47.8155 222.016 47.5742 222.822 47.5742C223.627 47.5742 224.312 47.8155 224.836 48.2981C225.359 48.7806 225.601 49.4241 225.601 50.1882C225.641 50.9522 225.359 51.5554 224.836 52.0782Z" fill="#1A375F"/>
<path d="M199.62 44.2362V48.0566V49.0217V57.0646H204.132V52.9628V51.877V50.8314C204.132 49.826 204.373 49.062 204.816 48.5392C205.3 48.0566 205.904 47.7751 206.669 47.7751C208.079 47.7751 208.764 48.6598 208.764 50.389V56.7027V57.0244H209.046H213.275V49.7054C213.275 47.8153 212.792 46.3676 211.825 45.4427C210.858 44.4775 209.569 44.0352 207.998 44.0352C207.193 44.0352 206.428 44.1558 205.702 44.4373C205.018 44.7188 204.414 45.1209 203.89 45.6437V44.2362H199.62Z" fill="#1A375F"/>
<path d="M193.215 44.2363H192.208V57.0245H196.68V46.7296V45.8047V44.2363H194.464H193.215Z" fill="#1A375F"/>
<path d="M196.438 38.6864C195.955 38.244 195.27 38.043 194.464 38.043C193.658 38.043 192.974 38.2843 192.49 38.7266C191.967 39.169 191.725 39.7722 191.725 40.4156C191.725 41.0993 191.967 41.6623 192.49 42.1046C192.974 42.547 193.658 42.7883 194.464 42.7883C195.27 42.7883 195.955 42.547 196.438 42.1046C196.921 41.6221 197.203 41.0591 197.203 40.3352C197.203 39.6515 196.962 39.1288 196.438 38.6864Z" fill="#1A375F"/>
<path d="M175.734 39.4902V57.0238H180.245V50.8307C180.245 49.8254 180.487 49.0613 180.93 48.5385C181.413 48.0559 182.017 47.7744 182.783 47.7744C184.192 47.7744 184.877 48.6591 184.877 50.3884V56.9835H189.389V49.6645C189.389 47.7744 188.905 46.3267 187.939 45.4018C186.972 44.4366 185.683 43.9943 184.112 43.9943C183.347 43.9943 182.622 44.1149 181.977 44.3562C181.292 44.5975 180.728 44.9594 180.245 45.4018V39.4902H175.734Z" fill="#1A375F"/>
<path d="M169.128 53.8071C168.805 53.968 168.282 54.0484 167.557 54.0484C166.791 54.0484 165.986 53.9277 165.18 53.7267C164.375 53.5256 163.69 53.2441 163.086 52.8822L161.716 55.9787C162.361 56.3808 163.166 56.7025 164.213 56.9438C165.261 57.1851 166.308 57.3058 167.396 57.3058C168.725 57.3058 169.893 57.1047 170.86 56.7428C171.826 56.3808 172.511 55.8982 173.035 55.2548C173.518 54.6114 173.76 53.8875 173.76 53.0832C173.76 52.1181 173.518 51.354 172.995 50.791C172.471 50.2682 171.867 49.8661 171.182 49.665C170.497 49.4639 169.611 49.2629 168.564 49.1422C167.718 49.0216 167.114 48.9009 166.751 48.7803C166.389 48.6596 166.187 48.4586 166.187 48.1369C166.187 47.8554 166.348 47.6543 166.671 47.4934C166.993 47.3326 167.516 47.2521 168.242 47.2521C169.571 47.2521 170.819 47.5739 171.947 48.2173L173.277 45.161C172.672 44.7991 171.907 44.5578 170.981 44.3567C170.054 44.1556 169.128 44.0752 168.201 44.0752C166.912 44.0752 165.784 44.2763 164.818 44.6382C163.891 45.0001 163.166 45.5229 162.683 46.1663C162.199 46.8098 161.958 47.5336 161.958 48.3379C161.958 49.3433 162.24 50.1074 162.723 50.6302C163.247 51.1932 163.851 51.5551 164.576 51.7562C165.301 51.9572 166.147 52.1181 167.194 52.2387C168 52.3594 168.604 52.48 168.967 52.5604C169.329 52.6811 169.53 52.8822 169.53 53.1637C169.611 53.4452 169.45 53.6462 169.128 53.8071Z" fill="#1A375F"/>
<path d="M159.138 44.2363H154.627V57.0245H159.138V44.2363Z" fill="#1A375F"/>
<path d="M158.896 38.6864C158.413 38.244 157.728 38.043 156.922 38.043C156.117 38.043 155.432 38.2843 154.949 38.7266C154.465 39.169 154.183 39.7722 154.183 40.4156C154.183 41.0993 154.425 41.6623 154.949 42.1046C155.472 42.547 156.117 42.7883 156.922 42.7883C157.728 42.7883 158.413 42.547 158.896 42.1046C159.38 41.6221 159.662 41.0591 159.662 40.3352C159.621 39.6515 159.38 39.1288 158.896 38.6864Z" fill="#1A375F"/>
<path d="M139.119 57.2255C139.884 57.2255 140.528 56.9842 141.052 56.4614C141.576 55.9788 141.817 55.3354 141.817 54.5311C141.817 53.7268 141.576 53.1236 141.052 52.6008C140.569 52.1182 139.884 51.877 139.119 51.877C138.353 51.877 137.709 52.1182 137.185 52.6008C136.661 53.0834 136.42 53.7268 136.42 54.5311C136.42 55.2952 136.661 55.9386 137.185 56.4614C137.709 56.9842 138.353 57.2255 139.119 57.2255Z" fill="#1A375F"/>
<path d="M127.115 58.0299C127.075 58.0701 127.034 58.0701 126.994 58.1103C126.753 58.231 126.511 58.2712 126.229 58.3114C126.189 58.3114 126.148 58.3114 126.108 58.3114C125.746 58.3114 125.383 58.231 125.02 58.1103C124.658 57.9897 124.376 57.7886 124.094 57.5473L122.523 60.6841C122.966 61.046 123.49 61.3275 124.175 61.5286C124.859 61.7296 125.544 61.8503 126.229 61.8503C127.115 61.8503 127.88 61.7296 128.605 61.4481C128.847 61.3677 129.049 61.2471 129.29 61.1264C129.411 61.046 129.532 61.0058 129.653 60.8851C130.579 60.2417 131.385 59.1559 132.029 57.5473L137.548 44.2363H133.278L130.096 52.0379L126.954 44.2363H122.322L127.8 57.1854C127.639 57.5875 127.397 57.8288 127.115 58.0299Z" fill="#1A375F"/>
<path d="M107.055 57.0238H111.567V50.8307C111.567 49.8254 111.808 49.0613 112.252 48.5385C112.735 48.0559 113.339 47.7744 114.104 47.7744C115.514 47.7744 116.199 48.6591 116.199 50.3884V56.9835H120.71V52.2784V51.1122V49.6645C120.71 47.7744 120.227 46.3267 119.26 45.4018C118.294 44.4366 117.005 43.9943 115.434 43.9943C115.353 43.9943 115.273 43.9943 115.232 43.9943C114.95 43.9943 114.668 44.0345 114.386 44.0747C114.024 44.1149 113.661 44.2355 113.339 44.3562C112.695 44.5975 112.09 44.9594 111.607 45.4018V39.9728V39.4902H111.325H107.136V57.0238H107.055Z" fill="#1A375F"/>
<path d="M108.707 27.3061C107.498 29.4375 107.78 32.0514 108.989 35.0675H109.754C108.546 32.1721 108.264 29.6788 109.351 27.668C112.09 22.7619 123.369 21.5957 143.791 24.089C154.546 25.416 166.55 29.5581 177.587 35.0273H179.158C167.154 28.9147 154.425 24.6117 143.912 23.3651C122.845 20.7914 111.647 22.038 108.707 27.3061Z" fill="#1A375F"/>
<path d="M90.6208 44.2362V61.6089H95.1323V55.8984C96.0184 56.7831 97.1866 57.2657 98.7172 57.2657C99.8854 57.2657 100.933 56.9842 101.899 56.4614C102.866 55.9386 103.631 55.1344 104.195 54.1692C104.759 53.1638 105.041 51.9976 105.041 50.6705C105.041 49.3435 104.759 48.1772 104.195 47.1719C103.631 46.1665 102.866 45.4024 101.899 44.8394C100.933 44.3167 99.8854 44.0352 98.7172 44.0352C97.0255 44.0352 95.7768 44.5177 94.9309 45.5231V44.2362H90.6208ZM95.7768 48.3783C96.2601 47.8555 96.9046 47.574 97.7102 47.574C98.5158 47.574 99.1603 47.8555 99.6437 48.3783C100.167 48.9413 100.409 49.6652 100.409 50.6303C100.409 51.5955 100.167 52.3193 99.6437 52.8421C99.1603 53.4051 98.5158 53.6464 97.7102 53.6464C96.9046 53.6464 96.2601 53.3649 95.7768 52.8421C95.2531 52.3193 95.0114 51.5553 95.0114 50.6303C95.0114 49.6652 95.2934 48.9413 95.7768 48.3783Z" fill="#1A375F"/>
<path d="M74.9517 54.0085C75.5559 55.0139 76.442 55.8182 77.5296 56.3812C78.6172 56.9442 79.8659 57.2257 81.2354 57.2257C82.6452 57.2257 83.8537 56.9442 84.9815 56.3812C86.0691 55.8182 86.9553 55.0139 87.5595 54.0085C88.1637 53.0032 88.4859 51.8772 88.4859 50.5903C88.4859 49.3034 88.1637 48.1774 87.5595 47.1721C86.9553 46.1667 86.0691 45.4026 84.9815 44.8396C83.8537 44.2766 82.6452 43.9951 81.2354 43.9951C79.8256 43.9951 78.6172 44.2766 77.4893 44.8396C76.4018 45.4026 75.5156 46.1667 74.9114 47.2123C74.3072 48.2176 73.9849 49.3436 73.9849 50.5903C74.0252 51.8772 74.3475 53.0032 74.9517 54.0085ZM79.3422 48.3785C79.8256 47.8557 80.4701 47.5742 81.2757 47.5742C82.0813 47.5742 82.7258 47.8557 83.2092 48.3785C83.7328 48.9013 83.9745 49.6654 83.9745 50.5903C83.9745 51.5554 83.7328 52.3195 83.2092 52.8423C82.7258 53.4053 82.0813 53.6466 81.2757 53.6466C80.4701 53.6466 79.8256 53.3651 79.3422 52.8423C78.8186 52.3195 78.5769 51.5554 78.5769 50.5903C78.5769 49.6654 78.8186 48.9013 79.3422 48.3785Z" fill="#1A375F"/>
<path d="M211.382 61.4474C213.275 64.4635 214.242 67.3187 214.081 69.8522C213.597 77.7745 202.48 81.9568 181.856 81.9568C170.054 81.9568 153.821 80.2276 137.064 77.5332C136.661 73.753 134.325 69.3295 131.103 64.6646C130.901 64.7852 130.7 64.9059 130.458 65.0265C133.56 69.5305 135.856 73.753 136.299 77.3723C111.124 73.2705 84.9412 66.9568 70.9236 60.9648C70.6819 61.0855 70.4402 61.1659 70.1985 61.2463L70.118 61.4072C84.0551 67.4796 110.761 73.9541 136.339 78.1364C136.46 80.308 135.816 82.1981 134.245 83.7664C125.705 92.2919 90.0166 90.4823 65.4857 80.3482C65.1635 80.4689 64.8412 80.6297 64.4787 80.7504C78.8186 86.8227 96.6629 89.9997 111.003 89.9997C121.959 89.9997 130.861 88.1498 134.728 84.2892C136.46 82.56 137.145 80.5493 137.064 78.2571C153.781 80.9514 169.973 82.6807 181.776 82.6807C208.361 82.6807 214.363 75.7236 214.725 69.8925C214.886 67.3589 214 64.4635 212.147 61.4072H211.382V61.4474Z" fill="#1A375F"/>
<path d="M64.5189 44.2361V57.0243H69.0303V51.1529C69.0303 50.0671 69.3122 49.3031 69.8359 48.7803C70.3595 48.2575 71.1249 48.0162 72.0916 48.0162C72.3736 48.0162 72.6958 48.0564 73.0986 48.0966V44.0752C72.1319 44.0752 71.3263 44.1958 70.5609 44.5176C69.8359 44.7991 69.2317 45.2414 68.7886 45.8446V44.2361H64.5189Z" fill="#1A375F"/>
<path d="M55.0933 56.0186C55.9795 56.8228 57.2684 57.2652 58.9602 57.2652C59.5644 57.2652 60.1686 57.1848 60.6923 57.0641C61.2159 56.9435 61.6993 56.7424 62.0618 56.5011L60.934 53.3644C60.5312 53.6459 60.0881 53.7665 59.5644 53.7665C59.1616 53.7665 58.8394 53.6459 58.5977 53.3644C58.356 53.1231 58.2352 52.7612 58.2352 52.2786V48.0159H61.1757V44.6379H58.2352V39.4502H53.7238V44.6379H51.8708V48.0159H53.7238V52.3188C53.7238 53.9676 54.1668 55.1741 55.0933 56.0186Z" fill="#1A375F"/>
<path d="M32.2946 34.665C32.0529 34.7053 31.8112 34.7455 31.5292 34.7857C33.9058 42.1449 42.9286 49.7857 49.4541 52.8018L49.7763 52.1181C43.3314 49.1423 34.6711 41.6221 32.2946 34.665Z" fill="#1A375F"/>
<path d="M74.1057 22.0379C72.1722 21.1934 70.1582 20.8717 68.0636 21.314C66.6135 21.6357 65.1634 21.9575 63.7939 22.5205C60.7325 23.7269 57.7921 25.1344 54.771 26.3811C52.1125 27.5473 49.3734 28.2309 46.4329 27.4668C46.1107 27.3864 45.7482 27.2256 45.4259 27.0647C45.7079 26.8636 45.9899 26.6223 46.2315 26.4213C46.3927 26.2604 46.5538 26.0593 46.6746 25.8985C46.4732 25.8181 46.2718 25.6572 46.0704 25.617C43.6939 25.3757 41.6798 24.491 40.0686 22.8824C38.4977 21.314 39.6255 20.0674 38.6991 20.0674C38.1754 20.0674 36.1211 20.9119 35.4766 21.2336C33.8251 22.0379 32.375 23.1237 31.0055 24.3301C30.6832 24.6116 30.1999 24.8529 29.7568 24.8931C28.347 24.9735 26.9372 24.8529 25.5676 24.9735C23.0702 25.1344 20.6131 25.3757 18.156 25.6974C17.0684 25.8583 16.0211 26.2202 14.9738 26.5017C11.268 27.4668 8.08585 29.0754 5.62874 31.6894C5.38706 31.9307 5.26621 31.9709 5.18565 31.8904C4.78285 31.4079 4.82313 30.0004 4.94397 29.4776C5.02453 29.1961 4.82313 29.1961 4.62172 29.2363C3.81611 29.3569 2.92994 29.6786 1.47984 32.1317C0.63395 33.5392 0.271425 35.6706 0.553389 37.6813C0.754792 39.0888 0.795072 40.1746 0.392266 41.6626C0.0297411 43.0299 -0.0911003 44.5982 0.0700219 46.0459C0.392266 49.5446 1.60068 52.802 3.49387 55.8181C5.14537 58.432 7.19968 60.684 9.45539 62.7752C12.1945 65.3087 15.4572 67.1585 18.6394 69.0888C19.0019 69.3301 19.4047 69.5312 19.7672 69.7323C18.881 71.4213 15.9003 72.5875 15.0947 73.3918C14.9738 73.5124 14.9335 73.7135 14.9335 73.8744C14.9738 74.0352 15.0947 74.1961 15.2558 74.2765C17.5921 75.4025 20.8951 75.8449 24.0772 75.7242C25.9301 75.6438 32.8584 74.3167 34.8321 74.0352C36.2017 73.8341 38.0143 74.2765 39.3838 74.9601C41.0354 75.8047 42.6868 76.6089 44.4592 77.1719C46.5941 77.8556 48.7692 78.4186 50.9847 78.7403C52.5959 78.9816 53.7237 78.9816 55.053 79.0218C55.9392 79.0218 56.7045 79.0218 57.1476 78.9816C59.2422 78.861 60.4506 78.6599 61.2562 78.499C62.2632 78.3382 64.0758 77.8154 65.0023 77.4132C65.5662 77.1719 65.6065 76.6894 65.3245 76.247C65.1634 75.9655 64.8814 75.7644 64.5995 75.5231C63.1897 74.2765 61.7396 73.1103 60.37 71.8636C58.3157 70.0138 56.342 68.0835 54.2071 66.3542C52.3945 64.8663 50.4207 63.6197 48.4873 62.2926C47.8428 61.8502 47.158 61.4883 46.5135 61.0861C46.151 60.8851 45.7885 60.6438 45.3856 60.4427C43.7744 59.6384 42.1229 58.8744 40.5117 58.0299C39.545 57.5473 38.0949 57.0245 34.0668 55.3757C32.9792 54.9333 23.2716 50.9119 22.748 50.6304C21.0562 49.7055 19.5255 48.6197 18.2768 47.1719C17.7935 46.6089 17.5518 44.9601 17.7935 44.1961C18.2366 42.7483 18.7199 42.4668 19.9686 41.6626C21.7812 40.4963 22.748 39.129 23.1508 37.2792C23.1911 37.1585 23.2716 36.7162 22.8688 36.877C22.3049 37.1183 20.8145 36.9977 20.2909 36.7162C20.17 36.676 20.3311 36.4347 20.7339 36.113C20.9756 35.9119 21.2173 35.751 21.459 35.55C22.748 34.6652 24.1175 33.9012 25.6079 33.3784C27.7025 32.6545 29.8776 32.0111 32.0528 31.6894C33.664 31.4481 35.3558 31.6894 37.0073 31.8502C38.4171 32.0111 39.8269 32.3328 41.2367 32.6143C41.4382 32.6545 41.6396 32.7349 41.8007 32.8556C42.8077 33.4588 43.7744 34.1022 44.8217 34.6652C45.7079 35.1478 46.6343 35.55 47.5608 35.9521C47.9233 36.113 48.2456 36.0727 48.4067 35.9119C48.8095 35.5097 47.6011 33.9012 48.0442 32.2524C48.1247 32.0111 48.1247 31.8502 48.2858 31.8904C53.1598 33.0164 53.2001 34.7055 59.363 35.8717C61.4576 36.2738 63.3911 36.0727 65.244 36.0727C66.4524 36.0727 66.7343 35.4695 66.1301 34.424C65.6065 33.6197 65.0023 32.8958 64.4384 32.0915C63.8341 31.247 64.0355 30.6438 64.8412 30.0406C66.0899 29.0352 67.3788 28.1103 68.4664 26.9843C70.1582 25.2148 71.9305 23.6867 74.3474 23.0433C74.5488 23.003 74.8307 22.6813 74.7905 22.6009C74.5085 22.3998 74.3071 22.1585 74.1057 22.0379Z" fill="#1A375F"/>
<path d="M279.98 43.4718C279.778 42.0241 278.852 40.8177 278.449 39.4504C278.207 38.3244 278.691 37.2386 278.691 36.1126C278.087 35.5094 277.482 34.9866 276.959 34.504C276.878 34.4236 276.838 34.1823 276.838 34.1019C277.079 33.2976 277.361 32.4933 277.764 31.689C275.871 31.0054 273.857 31.126 271.883 31.0054C271.118 31.0054 271.158 29.5979 270.917 29.0348C271.037 29.0348 271.4 29.0751 271.561 29.0751C272.246 27.4263 272.528 25.9785 272.528 24.7319C272.528 20.5496 269.225 18.4987 265.801 18.4987C263.304 18.4987 260.726 19.5844 259.316 21.756C255.852 22.0777 252.468 22.3592 250.212 23.7668C249.971 23.8874 250.051 24.2091 250.535 24.37C252.951 25.134 255.409 25.6568 257.946 25.9785C257.906 26.0992 257.866 26.1796 257.866 26.3003C257.866 26.4209 257.946 26.5013 257.866 26.7426C257.664 27.3861 257.221 28.0697 257.06 28.6729C257.02 28.7533 257.1 28.874 257.141 28.9142C257.302 28.9946 257.503 29.0348 257.584 29.1153C258.349 29.7989 257.503 30.8847 257.624 31.6488C257.342 31.7292 257.02 31.8499 256.698 31.9303C255.368 32.2922 253.636 32.6139 252.468 32.6944C251.461 32.815 250.897 34.0214 249.93 34.2627C248.359 34.2627 247.352 35.7105 246.265 36.5952C245.137 37.6005 243.485 37.7212 242.922 39.2493C241.995 39.0885 241.27 38.9678 240.706 38.7667C240.505 38.7265 240.344 38.8472 240.303 38.9276C240.263 39.0885 240.182 39.1689 240.102 39.37C239.941 39.2895 239.82 39.1689 239.659 39.0885C234.382 35.7507 228.944 32.4933 223.547 29.3968C217.625 26.1796 207.797 20.1877 190.597 13.311C178.392 8.44504 163.408 3.65952 147.779 1.44772C140.448 0.402144 136.379 0.120643 134.406 0.402145C136.46 0.482574 141.938 1.126 147.014 2.09115C157.003 4.02145 172.31 7.35925 190.235 14.5576C205.622 20.7507 222.58 30.563 222.66 30.6032C227.897 33.6193 233.093 36.7158 238.209 39.933C238.209 40.2547 238.088 40.697 238.33 41.059C238.773 41.3003 239.216 41.3807 239.659 41.5013C239.659 41.8231 239.659 42.185 239.78 42.3861C240.102 42.8284 240.666 42.9491 241.109 43.1501C241.23 43.3512 241.23 43.5925 241.23 43.9142C240.827 43.6729 240.384 43.5523 239.901 43.5523C239.135 43.5523 238.41 43.874 237.967 44.3968C237.927 44.3968 237.887 44.3566 237.887 44.3566C217.223 28.9142 194.263 17.2922 169.692 9.77212C140.126 0.723862 122.885 0 103.43 0C83.6925 0 65.6468 2.85523 52.6765 8.00268C46.5941 10.4155 41.7202 13.2708 38.1755 16.5281C38.4574 16.5684 38.7797 16.6488 39.0214 16.7694C42.4855 13.7131 47.1178 11.0188 52.9182 8.72654C65.8079 3.6193 83.7328 0.804289 103.39 0.804289C122.805 0.804289 139.964 1.52815 169.611 10.5764C191.725 17.3324 212.51 27.4263 231.482 40.6568C233.295 41.9035 235.107 43.2306 236.879 44.5174C236.759 44.7587 237.202 45.3217 237.403 45.9249C237.403 46.0456 237.363 46.1662 237.363 46.2466V46.2869C237.363 47.0509 237.725 47.7748 238.289 48.2172C238.773 48.6193 239.337 48.8606 240.021 48.8606C240.344 48.8606 240.666 48.8204 240.948 48.6997C241.391 48.8606 241.794 49.2225 242.237 49.504C242.317 49.5442 242.519 49.5442 242.599 49.504C243.486 48.941 244.613 48.9008 245.54 48.4182C245.983 47.6541 246.225 46.8499 246.748 46.2064C246.99 46.5281 247.07 46.9705 247.191 47.4129C247.191 48.1769 247.957 48.7399 248.319 49.504C248.44 50.067 247.997 50.7105 248.319 51.2735C248.883 52.0375 249.326 52.9222 249.769 53.807C250.897 55.134 252.75 55.4558 253.636 57.0241C254.2 57.9088 255.086 58.5925 255.529 59.5978C255.207 61.4879 255.409 63.378 254.402 65.1474C253.958 65.9115 253.354 66.5952 253.032 67.3592C252.71 68.3646 252.71 69.4906 252.388 70.5764C252.146 71.7024 251.824 72.7882 251.501 73.9142C251.179 74.9196 250.494 75.6836 250.172 76.689C250.051 77.1716 249.971 77.6541 249.89 78.1367C254.361 78.0965 258.953 78.4987 263.465 78.8204C263.505 78.6997 263.545 78.5791 263.626 78.4182C263.948 77.6541 264.834 77.2118 265.398 76.6488C266.405 75.9651 267.17 75 267.734 73.9946C268.741 74.5576 269.708 75.1206 270.957 75.1206C272.286 75.0804 274.099 75.0804 274.824 73.9946C275.629 72.8284 275.589 71.5415 276.274 70.4558C277.16 69.1287 277.402 67.5603 277.724 66.2332C276.153 65.2279 274.502 64.5844 272.729 64.2225C273.172 63.6997 274.26 61.689 274.381 60.2413C274.502 58.9142 274.381 57.6676 274.502 56.3405C274.824 55.2145 275.186 54.2091 275.388 53.1233C276.072 51.0322 276.959 49.3029 277.281 47.0912C277.523 45.8847 277.724 44.5979 277.482 43.3512C278.127 43.6327 278.812 43.9142 279.537 43.9946C279.899 44.0348 280.06 43.8338 279.98 43.4718ZM256.899 46.689C257.02 47.4531 256.899 48.3378 256.899 49.1421C256.134 48.0161 255.006 47.1314 253.797 46.6086C252.025 45.0402 249.93 43.7131 248.118 42.0643C250.253 41.3003 252.146 40.0134 254.361 39.8123C255.207 40.2547 256.456 40.8579 257.906 41.059C257.503 41.9839 256.577 45.6836 256.899 46.689Z" fill="#1A375F"/>
<path d="M148.786 44.6784H151.847V48.0162H148.907V56.9841H144.395V48.0162H142.542V44.6784H144.395V42.8688C144.395 41.3004 144.879 40.094 145.805 39.169C146.732 38.2441 148.061 37.8018 149.753 37.8018C150.317 37.8018 150.881 37.842 151.404 37.9626C151.928 38.0833 152.371 38.2441 152.733 38.4452L151.606 41.6221C151.163 41.3808 150.719 41.2602 150.276 41.2602C149.793 41.2602 149.43 41.4211 149.189 41.7026C148.947 41.9841 148.786 42.3862 148.786 42.9492V44.6784Z" fill="#1A375F"/>
</svg>
